<?xml version="1.0" encoding="UTF-8" standalone="no"?>
<!-- Created with Inkscape (http://www.inkscape.org/) -->

<svg
   xmlns:dc="http://purl.org/dc/elements/1.1/"
   xmlns:cc="http://creativecommons.org/ns#"
   xmlns:rdf="http://www.w3.org/1999/02/22-rdf-syntax-ns#"
   xmlns:svg="http://www.w3.org/2000/svg"
   xmlns="http://www.w3.org/2000/svg"
   xmlns:sodipodi="http://sodipodi.sourceforge.net/DTD/sodipodi-0.dtd"
   xmlns:inkscape="http://www.inkscape.org/namespaces/inkscape"
   width="413.34052"
   height="154.35284"
   id="svg3400"
   version="1.1"
   inkscape:version="0.48.4 r"
   sodipodi:docname="P+Slogan.svg">
  <defs
     id="defs3402" />
  <sodipodi:namedview
     id="base"
     pagecolor="#ffffff"
     bordercolor="#666666"
     borderopacity="1.0"
     inkscape:pageopacity="0.0"
     inkscape:pageshadow="2"
     inkscape:zoom="1.4"
     inkscape:cx="650.99737"
     inkscape:cy="-152.39728"
     inkscape:document-units="px"
     inkscape:current-layer="text3405"
     showgrid="false"
     fit-margin-top="0"
     fit-margin-left="0"
     fit-margin-right="0"
     fit-margin-bottom="0"
     inkscape:window-width="2560"
     inkscape:window-height="1377"
     inkscape:window-x="-8"
     inkscape:window-y="-8"
     inkscape:window-maximized="1" />
  <metadata
     id="metadata3405">
    <rdf:RDF>
      <cc:Work
         rdf:about="">
        <dc:format>image/svg+xml</dc:format>
        <dc:type
           rdf:resource="http://purl.org/dc/dcmitype/StillImage" />
        <dc:title />
      </cc:Work>
    </rdf:RDF>
  </metadata>
  <g
     inkscape:label="Ebene 1"
     inkscape:groupmode="layer"
     id="layer1"
     transform="translate(23.81311,-552.32859)">
    <g
       id="text3405"
       style="font-size:55.43274689px;font-style:normal;font-variant:normal;font-weight:normal;font-stretch:normal;line-height:125%;letter-spacing:0px;word-spacing:0px;fill:#ffffff;fill-opacity:1;stroke:none;font-family:Adobe Heiti Std R;-inkscape-font-specification:Adobe Heiti Std R"
       transform="translate(2653.8772,-1741.7767)">
      <path
         inkscape:connector-curvature="0"
         id="path2992"
         style="font-size:80px;text-align:start;line-height:125%;writing-mode:lr-tb;text-anchor:start;fill:#ffffff;font-family:Viga;-inkscape-font-specification:Viga"
         d="m -2469.9202,2324.647 c 3.2796,3.2796 4.9194,8.0925 4.9195,14.4384 -10e-5,6.3461 -1.6399,11.1593 -4.9195,14.4397 -3.2796,3.2805 -7.9061,4.9207 -13.8794,4.9207 l -10.9619,0 0,18.2397 -11.1181,0 0,-56.9604 22.08,0 c 5.9733,10e-5 10.5998,1.6407 13.8794,4.9219 z m -6.2011,14.4384 c -1e-4,-6.2939 -2.7467,-9.4408 -8.2398,-9.4409 l -10.4004,0 0,18.8013 10.4004,0 c 2.6676,0 4.7078,-0.7202 6.1206,-2.1606 1.4127,-1.4404 2.1191,-3.8403 2.1192,-7.1998 z" />
      <path
         inkscape:connector-curvature="0"
         id="path2994"
         style="font-size:80px;text-align:start;line-height:125%;writing-mode:lr-tb;text-anchor:start;fill:#ffffff;font-family:Viga;-inkscape-font-specification:Viga"
         d="m -2446.3679,2376.6855 -10.4004,0.081 0,-60.2417 10.4004,0 z" />
      <path
         inkscape:connector-curvature="0"
         id="path2996"
         style="font-size:80px;text-align:start;line-height:125%;writing-mode:lr-tb;text-anchor:start;fill:#ffffff;font-family:Viga;-inkscape-font-specification:Viga"
         d="m -2403.6775,2376.6855 -6.9604,0 -3.2007,-5.52 -11.1182,6.001 c -6.1865,0 -10.3467,-2.2404 -12.4805,-6.7212 -1.0677,-2.1859 -1.8013,-4.5455 -2.2009,-7.0788 -0.3996,-2.5334 -0.5993,-5.1734 -0.5993,-7.92 0,-2.7465 0.026,-4.7733 0.079,-6.0803 0.053,-1.3069 0.1864,-2.8271 0.4004,-4.5605 0.214,-1.7334 0.5208,-3.1868 0.9204,-4.3604 0.3996,-1.1735 0.9729,-2.3868 1.72,-3.6401 0.747,-1.2532 1.6536,-2.2534 2.7197,-3.0005 2.4007,-1.652 5.5208,-2.478 9.3603,-2.478 l 10.9595,0 10.4004,-0.6421 z m -10.4004,-14.5605 0,-21.4404 -7.9199,0 c -2.933,0 -4.9728,1.1202 -6.1194,3.3606 -1.1466,2.2404 -1.72,5.5872 -1.72,10.0402 0,4.4532 0.5465,7.5863 1.6394,9.3995 1.093,1.8131 3.1596,2.7197 6.2,2.7197 z" />
      <path
         inkscape:connector-curvature="0"
         id="path2998"
         style="font-size:80px;text-align:start;line-height:125%;writing-mode:lr-tb;text-anchor:start;fill:#ffffff;font-family:Viga;-inkscape-font-specification:Viga"
         d="m -2369.1023,2359.9644 9.4409,-0.078 c -0.054,0.4265 -0.107,1.1996 -0.1599,2.3194 -0.053,1.1198 -0.093,1.8799 -0.1196,2.2802 -0.027,0.4004 -0.094,1.0271 -0.2002,1.8799 -0.1067,0.8529 -0.2267,1.4795 -0.3601,1.8799 -0.1335,0.4004 -0.3069,0.9204 -0.52,1.5601 -0.9604,2.7734 -3.5735,4.9601 -7.8394,6.56 -2.7214,0.9603 -5.5619,1.4405 -8.5217,1.4405 -2.9598,0 -5.6397,-0.4802 -8.0396,-1.4405 -2.3999,-0.9603 -4.2932,-2.1867 -5.6799,-3.6792 -3.1462,-3.3073 -4.7192,-9.5076 -4.7192,-18.6011 0,-9.0933 1.573,-15.2937 4.7192,-18.601 1.3867,-1.4925 3.28,-2.7189 5.6799,-3.6792 2.3999,-0.9603 5.0663,-1.4404 7.9993,-1.4405 5.7601,10e-5 10.1334,1.4401 13.1201,4.3201 2.9866,2.8801 4.48,6.8803 4.48,12.0007 l -9.4385,0 c 0,-2.3469 -0.5868,-4.0938 -1.7602,-5.2404 -1.1736,-1.1466 -3.3468,-1.72 -6.5198,-1.72 -3.173,0 -5.2796,0.9868 -6.3196,2.9602 -1.04,1.9735 -1.5601,4.9337 -1.5601,8.8806 l 0,4.1602 c 0,6.346 1.2264,10.2392 3.6792,11.6797 1.1198,0.6933 2.5863,1.04 4.3995,1.04 1.8131,0 3.293,-0.1733 4.4397,-0.52 1.1466,-0.3467 1.9734,-0.9469 2.4804,-1.8006 0.507,-0.8536 0.8407,-1.6935 1.001,-2.5195 0.1603,-0.826 0.2665,-2.0398 0.3186,-3.6413 z" />
      <path
         inkscape:connector-curvature="0"
         id="path3000"
         style="font-size:80px;text-align:start;line-height:125%;writing-mode:lr-tb;text-anchor:start;fill:#ffffff;font-family:Viga;-inkscape-font-specification:Viga"
         d="m -2345.6184,2313.5654 c 2.5065,1e-4 4.1329,0.3866 4.8791,1.1597 0.7463,0.7732 1.1194,2.4 1.1194,4.8804 0,2.4805 -0.3865,4.1073 -1.1596,4.8803 -0.7732,0.7732 -2.3996,1.1598 -4.8792,1.1597 -2.4797,10e-5 -4.1064,-0.3999 -4.8804,-1.1999 -0.7739,-0.8 -1.1609,-2.4267 -1.1609,-4.8804 0,-2.4536 0.387,-4.0669 1.1609,-4.8401 0.774,-0.7731 2.4142,-1.1596 4.9207,-1.1597 z m 5.1196,63.1201 -10.4004,0 0,-43.999 10.4004,0 z" />
      <path
         inkscape:connector-curvature="0"
         id="path3002"
         style="font-size:80px;text-align:start;line-height:125%;writing-mode:lr-tb;text-anchor:start;fill:#ffffff;font-family:Viga;-inkscape-font-specification:Viga"
         d="m -2309.3489,2376.6855 -6.4795,0 c -3.9469,0 -6.947,-1.1735 -9.0002,-3.5205 -2.0532,-2.347 -3.0799,-5.1464 -3.0798,-8.3984 l 0,-24.0015 -4.3995,0 0,-7.9199 4.3995,0 0,-8.9599 10.4003,0 0,8.9599 7.3609,0 0,7.9199 -7.3609,0 0,23.3594 c 0,2.5082 1.2004,3.7622 3.6011,3.7622 l 4.5581,0 z" />
      <path
         inkscape:connector-curvature="0"
         id="path3004"
         style="font-size:80px;text-align:start;line-height:125%;writing-mode:lr-tb;text-anchor:start;fill:#ffffff;font-family:Viga;-inkscape-font-specification:Viga"
         d="m -2267.3835,2331.0044 -17.3584,50.8008 c -0.8008,2.2933 -1.8409,4.0804 -3.1202,5.3613 -2.1338,2.1322 -5.1204,3.1982 -8.9599,3.1982 l -4.8804,0 0,-9.3603 3.2007,0 c 1.4925,0 2.5989,-0.2531 3.3191,-0.7593 0.7202,-0.5062 1.3464,-1.5063 1.8786,-3.0005 l 0.8008,-2.2387 -13.7597,-44.0015 10.9594,0 8.1617,31.7602 8.7988,-31.7602 z" />
      <path
         inkscape:connector-curvature="0"
         id="path3006"
         style="font-size:25px;text-align:start;line-height:125%;writing-mode:lr-tb;text-anchor:start;fill:#ffffff;font-family:Viga;-inkscape-font-specification:Viga"
         d="m -2501.4454,2417.8233 3.2249,0 c 0,2.2665 -0.5666,4.0081 -1.6998,5.225 -1.1332,1.2169 -2.7331,1.8253 -4.7997,1.8253 -4.5501,0 -6.8252,-2.6751 -6.8252,-8.0253 l 0,-1.5 c 0,-4.2165 1.1665,-6.858 3.4996,-7.9246 0.917,-0.4333 2.0256,-0.65 3.3256,-0.65 1.8997,0 3.4455,0.5208 4.6372,1.5625 1.1917,1.0416 1.7875,2.5456 1.7875,4.512 l -3.2501,0 c -0.1831,-0.9832 -0.508,-1.7248 -0.9746,-2.2247 -0.4667,-0.5 -1.2,-0.75 -2.2,-0.75 -1.1668,0 -2.0335,0.3667 -2.6001,1.1001 -0.4003,0.5163 -0.6337,1.3995 -0.7003,2.6497 -0.033,0.3998 -0.05,0.9415 -0.05,1.6251 l 0,1.5503 c 0,1.9165 0.2665,3.2247 0.7995,3.9245 0.5504,0.6999 1.4046,1.0499 2.5627,1.0499 1.1582,0 1.9581,-0.3209 2.3999,-0.9625 0.4417,-0.6416 0.7292,-1.6374 0.8625,-2.9873 z" />
      <path
         inkscape:connector-curvature="0"
         id="path3008"
         style="font-size:25px;text-align:start;line-height:125%;writing-mode:lr-tb;text-anchor:start;fill:#ffffff;font-family:Viga;-inkscape-font-specification:Viga"
         d="m -2487.9345,2410.4983 -0.9003,3.1998 c -0.2498,-0.1 -0.5331,-0.1495 -0.8499,-0.1495 -0.8332,0 -1.858,0.3583 -3.0747,1.0749 l 0,10.0998 -3.2501,0 0,-14.2753 2.4246,0 0.75,1.2504 3.45,-1.4251 c 0.1668,-0.017 0.3919,-0.025 0.6752,-0.025 0.2833,0 0.5417,0.083 0.7752,0.2502 z" />
      <path
         inkscape:connector-curvature="0"
         id="path3010"
         style="font-size:25px;text-align:start;line-height:125%;writing-mode:lr-tb;text-anchor:start;fill:#ffffff;font-family:Viga;-inkscape-font-specification:Viga"
         d="m -2475.0439,2418.3482 -8.3252,0 c 0,1.3001 0.2042,2.2501 0.6126,2.85 0.4085,0.5999 1.2291,0.8999 2.462,0.8999 0.8001,0 1.3919,-0.2541 1.7754,-0.7622 0.3835,-0.5081 0.5752,-0.9956 0.5753,-1.4626 l 2.9251,0 c -10e-5,1.7833 -0.4793,3.0916 -1.4378,3.925 -0.9585,0.8334 -2.2252,1.25 -3.8002,1.25 -1.575,0 -2.7958,-0.225 -3.6625,-0.6752 -1.7832,-0.9165 -2.6749,-3.3498 -2.6749,-7.2998 0,-2.3498 0.5084,-4.0706 1.5252,-5.1624 1.0167,-1.0917 2.5667,-1.6376 4.6501,-1.6376 3.6163,0 5.4245,2.0083 5.4245,6.0249 0,0.4334 -0.017,1.1167 -0.05,2.05 z m -8.2504,-2.2247 5.3505,0 c -1e-4,-1.1002 -0.2085,-1.9002 -0.6253,-2.4002 -0.4168,-0.5 -1.0544,-0.75 -1.9127,-0.75 -0.8583,0 -1.5416,0.2542 -2.05,0.7626 -0.5084,0.5083 -0.7625,1.3042 -0.7625,2.3876 z" />
      <path
         inkscape:connector-curvature="0"
         id="path3012"
         style="font-size:25px;text-align:start;line-height:125%;writing-mode:lr-tb;text-anchor:start;fill:#ffffff;font-family:Viga;-inkscape-font-specification:Viga"
         d="m -2462.1983,2424.7233 -2.1751,0 -1.0003,-1.725 -3.4744,1.8753 c -1.9333,0 -3.2333,-0.7001 -3.9001,-2.1003 -0.3337,-0.6831 -0.563,-1.4205 -0.6878,-2.2122 -0.1249,-0.7917 -0.1873,-1.6166 -0.1873,-2.475 0,-0.8583 0.01,-1.4916 0.025,-1.9001 0.017,-0.4084 0.058,-0.8834 0.1251,-1.4251 0.067,-0.5417 0.1628,-0.9959 0.2876,-1.3626 0.1249,-0.3667 0.3041,-0.7459 0.5375,-1.1376 0.2335,-0.3916 0.5168,-0.7042 0.8499,-0.9376 0.7503,-0.5163 1.7253,-0.7744 2.9251,-0.7744 l 3.4249,0 3.2501,-0.2007 z m -3.2501,-4.5501 0,-6.7002 -2.475,0 c -0.9166,0 -1.554,0.3501 -1.9123,1.0502 -0.3583,0.7002 -0.5375,1.746 -0.5375,3.1376 0,1.3916 0.1708,2.3707 0.5123,2.9373 0.3416,0.5666 0.9874,0.8499 1.9375,0.8499 z" />
      <path
         inkscape:connector-curvature="0"
         id="path3014"
         style="font-size:25px;text-align:start;line-height:125%;writing-mode:lr-tb;text-anchor:start;fill:#ffffff;font-family:Viga;-inkscape-font-specification:Viga"
         d="m -2452.5937,2424.7233 -2.0248,0 c -1.2334,0 -2.1709,-0.3667 -2.8126,-1.1001 -0.6416,-0.7335 -0.9624,-1.6083 -0.9624,-2.6245 l 0,-7.5005 -1.3748,0 0,-2.475 1.3748,0 0,-2.8 3.2501,0 0,2.8 2.3003,0 0,2.475 -2.3003,0 0,7.2998 c 0,0.7838 0.3751,1.1757 1.1253,1.1757 l 1.4244,0 z" />
      <path
         inkscape:connector-curvature="0"
         id="path3016"
         style="font-size:25px;text-align:start;line-height:125%;writing-mode:lr-tb;text-anchor:start;fill:#ffffff;font-family:Viga;-inkscape-font-specification:Viga"
         d="m -2439.2041,2418.3482 -8.3252,0 c 0,1.3001 0.2042,2.2501 0.6127,2.85 0.4084,0.5999 1.2291,0.8999 2.462,0.8999 0.8,0 1.3918,-0.2541 1.7753,-0.7622 0.3835,-0.5081 0.5753,-0.9956 0.5753,-1.4626 l 2.9251,0 c 0,1.7833 -0.4793,3.0916 -1.4378,3.925 -0.9585,0.8334 -2.2252,1.25 -3.8002,1.25 -1.5749,0 -2.7958,-0.225 -3.6624,-0.6752 -1.7833,-0.9165 -2.6749,-3.3498 -2.6749,-7.2998 0,-2.3498 0.5084,-4.0706 1.5251,-5.1624 1.0167,-1.0917 2.5668,-1.6376 4.6501,-1.6376 3.6163,0 5.4245,2.0083 5.4245,6.0249 0,0.4334 -0.016,1.1167 -0.05,2.05 z m -8.2504,-2.2247 5.3505,0 c 0,-1.1002 -0.2084,-1.9002 -0.6252,-2.4002 -0.4169,-0.5 -1.0544,-0.75 -1.9127,-0.75 -0.8583,0 -1.5417,0.2542 -2.05,0.7626 -0.5084,0.5083 -0.7626,1.3042 -0.7626,2.3876 z" />
      <path
         inkscape:connector-curvature="0"
         id="path3018"
         style="font-size:25px;text-align:start;line-height:125%;writing-mode:lr-tb;text-anchor:start;fill:#ffffff;font-family:Viga;-inkscape-font-specification:Viga"
         d="m -2426.1982,2426.5735 -3.2502,0 0,-21.5004 3.2502,0 z" />
      <path
         inkscape:connector-curvature="0"
         id="path3020"
         style="font-size:25px;text-align:start;line-height:125%;writing-mode:lr-tb;text-anchor:start;fill:#ffffff;font-family:Viga;-inkscape-font-specification:Viga"
         d="m -2404.3347,2408.4613 c 1.0249,1.0249 1.5373,2.5289 1.5373,4.512 0,1.9832 -0.5124,3.4873 -1.5373,4.5124 -1.0249,1.0252 -2.4706,1.5377 -4.3373,1.5377 l -3.4256,0 0,5.6999 -3.4744,0 0,-17.8001 6.9,0 c 1.8667,0 3.3124,0.5127 4.3373,1.5381 z m -1.9379,4.512 c 0,-1.9668 -0.8583,-2.9503 -2.5749,-2.9503 l -3.2501,0 0,5.8754 3.2501,0 c 0.8337,0 1.4712,-0.225 1.9127,-0.6752 0.4415,-0.4501 0.6622,-1.2001 0.6622,-2.2499 z" />
      <path
         inkscape:connector-curvature="0"
         id="path3022"
         style="font-size:25px;text-align:start;line-height:125%;writing-mode:lr-tb;text-anchor:start;fill:#ffffff;font-family:Viga;-inkscape-font-specification:Viga"
         d="m -2396.9746,2424.7233 -3.2501,0.025 0,-18.8255 3.2501,0 z" />
      <path
         inkscape:connector-curvature="0"
         id="path3024"
         style="font-size:25px;text-align:start;line-height:125%;writing-mode:lr-tb;text-anchor:start;fill:#ffffff;font-family:Viga;-inkscape-font-specification:Viga"
         d="m -2383.6339,2424.7233 -2.1751,0 -1.0002,-1.725 -3.4744,1.8753 c -1.9333,0 -3.2334,-0.7001 -3.9002,-2.1003 -0.3336,-0.6831 -0.5629,-1.4205 -0.6878,-2.2122 -0.1248,-0.7917 -0.1873,-1.6166 -0.1873,-2.475 0,-0.8583 0.01,-1.4916 0.025,-1.9001 0.017,-0.4084 0.058,-0.8834 0.1251,-1.4251 0.067,-0.5417 0.1628,-0.9959 0.2877,-1.3626 0.1248,-0.3667 0.304,-0.7459 0.5375,-1.1376 0.2334,-0.3916 0.5167,-0.7042 0.8499,-0.9376 0.7502,-0.5163 1.7252,-0.7744 2.9251,-0.7744 l 3.4248,0 3.2501,-0.2007 z m -3.2501,-4.5501 0,-6.7002 -2.4749,0 c -0.9166,0 -1.554,0.3501 -1.9124,1.0502 -0.3583,0.7002 -0.5374,1.746 -0.5374,3.1376 0,1.3916 0.1707,2.3707 0.5123,2.9373 0.3415,0.5666 0.9873,0.8499 1.9375,0.8499 z" />
      <path
         inkscape:connector-curvature="0"
         id="path3026"
         style="font-size:25px;text-align:start;line-height:125%;writing-mode:lr-tb;text-anchor:start;fill:#ffffff;font-family:Viga;-inkscape-font-specification:Viga"
         d="m -2369.7041,2410.448 -5.4245,15.8752 c -0.2503,0.7167 -0.5753,1.2751 -0.975,1.6754 -0.6669,0.6663 -1.6002,0.9995 -2.8,0.9995 l -1.5251,0 0,-2.9251 1.0002,0 c 0.4664,0 0.8121,-0.079 1.0372,-0.2373 0.2251,-0.1582 0.4207,-0.4707 0.5871,-0.9376 l 0.2502,-0.6997 -4.2999,-13.7504 3.4248,0 2.5505,9.9251 2.7497,-9.9251 z" />
      <path
         inkscape:connector-curvature="0"
         id="path3028"
         style="font-size:25px;text-align:start;line-height:125%;writing-mode:lr-tb;text-anchor:start;fill:#ffffff;font-family:Viga;-inkscape-font-specification:Viga"
         d="m -2357.79,2426.5735 -3.2502,0 0,-21.5004 3.2502,0 z" />
      <path
         inkscape:connector-curvature="0"
         id="path3030"
         style="font-size:25px;text-align:start;line-height:125%;writing-mode:lr-tb;text-anchor:start;fill:#ffffff;font-family:Viga;-inkscape-font-specification:Viga"
         d="m -2335.439,2424.7233 -6.3003,0 c -1.9999,0 -3.404,-0.3458 -4.2122,-1.0376 -0.8082,-0.6917 -1.2123,-1.9124 -1.2123,-3.6621 l 0,-13.1004 11.7248,0 0,3.0998 -8.2504,0 0,4.1756 5.7755,0 -0.2503,3.0998 -5.5252,0 0,2.475 c 0,0.6999 0.1584,1.1832 0.4753,1.45 0.3169,0.2667 0.8919,0.4001 1.725,0.4001 l 6.0501,0 z" />
      <path
         inkscape:connector-curvature="0"
         id="path3032"
         style="font-size:25px;text-align:start;line-height:125%;writing-mode:lr-tb;text-anchor:start;fill:#ffffff;font-family:Viga;-inkscape-font-specification:Viga"
         d="m -2321.3521,2424.7233 -3.6499,0 -2.5253,-4.3747 -2.375,4.3747 -3.9002,0 4.625,-7.2746 -4.4495,-7.0007 3.6499,0 2.5002,4.1252 2.4246,-4.1252 3.6499,0 -4.4502,7.0007 z" />
      <path
         inkscape:connector-curvature="0"
         id="path3034"
         style="font-size:25px;text-align:start;line-height:125%;writing-mode:lr-tb;text-anchor:start;fill:#ffffff;font-family:Viga;-inkscape-font-specification:Viga"
         d="m -2307.6939,2417.1985 c 0,3.7165 -0.9583,6.0915 -2.8748,7.1251 -0.7833,0.4165 -1.7415,0.6248 -2.8747,0.6248 l -2.4002,-1.5503 0,5.5756 -3.2502,0 0,-18.425 6.4003,0 c 1.9333,0 3.2499,0.5458 3.9498,1.6373 0.6998,1.0915 1.0498,2.7623 1.0498,5.0125 z m -3.2501,0.4997 c 0,-2.8168 -0.9001,-4.2252 -2.7001,-4.2252 l -2.1995,0 0,6.6254 2.1995,1.4252 c 0.9669,0 1.6586,-0.3042 2.0752,-0.9125 0.4166,-0.6083 0.6249,-1.5793 0.6249,-2.9129 z" />
      <path
         inkscape:connector-curvature="0"
         id="path3036"
         style="font-size:25px;text-align:start;line-height:125%;writing-mode:lr-tb;text-anchor:start;fill:#ffffff;font-family:Viga;-inkscape-font-specification:Viga"
         d="m -2301.9551,2424.7233 -3.2501,0.025 0,-18.8255 3.2501,0 z" />
      <path
         inkscape:connector-curvature="0"
         id="path3038"
         style="font-size:25px;text-align:start;line-height:125%;writing-mode:lr-tb;text-anchor:start;fill:#ffffff;font-family:Viga;-inkscape-font-specification:Viga"
         d="m -2290.7147,2418.2734 0,-1.3 c 0,-1.2334 -0.1792,-2.1751 -0.5375,-2.8252 -0.3583,-0.65 -1.1041,-0.975 -2.2373,-0.975 -1.8331,0 -2.7496,1.2334 -2.7496,3.7003 l 0,1.3 c 0,2.6499 0.9165,3.9749 2.7496,3.9749 1.1836,0 1.9587,-0.4417 2.3254,-1.3252 0.2996,-0.6999 0.4494,-1.5498 0.4494,-2.5498 z m 3.2501,-0.7499 c 0,3.0833 -0.5834,5.1498 -1.7502,6.1996 -0.9831,0.9003 -2.4081,1.3504 -4.2747,1.3504 -2.3834,0 -3.9917,-0.7001 -4.8248,-2.1003 -0.7833,-1.2833 -1.175,-3.0999 -1.175,-5.4497 0,-2.2003 0.3917,-3.9253 1.175,-5.175 0.8667,-1.4003 2.4458,-2.1004 4.7374,-2.1004 2.2916,0 3.8833,0.6125 4.7749,1.8375 0.8916,1.2251 1.3374,3.0377 1.3374,5.4379 z" />
      <path
         inkscape:connector-curvature="0"
         id="path3040"
         style="font-size:25px;text-align:start;line-height:125%;writing-mode:lr-tb;text-anchor:start;fill:#ffffff;font-family:Viga;-inkscape-font-specification:Viga"
         d="m -2277.29,2410.4983 -0.9003,3.1998 c -0.2497,-0.1 -0.533,-0.1495 -0.8499,-0.1495 -0.8331,0 -1.858,0.3583 -3.0746,1.0749 l 0,10.0998 -3.2502,0 0,-14.2753 2.4247,0 0.7499,1.2504 3.45,-1.4251 c 0.1669,-0.017 0.3919,-0.025 0.6752,-0.025 0.2833,0 0.5417,0.083 0.7752,0.2502 z" />
      <path
         inkscape:connector-curvature="0"
         id="path3042"
         style="font-size:25px;text-align:start;line-height:125%;writing-mode:lr-tb;text-anchor:start;fill:#ffffff;font-family:Viga;-inkscape-font-specification:Viga"
         d="m -2264.3994,2418.3482 -8.3252,0 c 0,1.3001 0.2042,2.2501 0.6127,2.85 0.4084,0.5999 1.2291,0.8999 2.462,0.8999 0.8,0 1.3918,-0.2541 1.7753,-0.7622 0.3835,-0.5081 0.5753,-0.9956 0.5753,-1.4626 l 2.9251,0 c 0,1.7833 -0.4793,3.0916 -1.4378,3.925 -0.9585,0.8334 -2.2252,1.25 -3.8002,1.25 -1.5749,0 -2.7958,-0.225 -3.6625,-0.6752 -1.7832,-0.9165 -2.6748,-3.3498 -2.6748,-7.2998 0,-2.3498 0.5083,-4.0706 1.5251,-5.1624 1.0167,-1.0917 2.5668,-1.6376 4.6501,-1.6376 3.6163,0 5.4245,2.0083 5.4245,6.0249 0,0.4334 -0.017,1.1167 -0.05,2.05 z m -8.2504,-2.2247 5.3505,0 c 0,-1.1002 -0.2084,-1.9002 -0.6252,-2.4002 -0.4169,-0.5 -1.0544,-0.75 -1.9127,-0.75 -0.8583,0 -1.5417,0.2542 -2.0501,0.7626 -0.5083,0.5083 -0.7625,1.3042 -0.7625,2.3876 z" />
    </g>
    <g
       inkscape:export-ydpi="11.660527"
       inkscape:export-xdpi="11.660527"
       inkscape:export-filename="E:\Dokumente\APP2\Bildmaterial\Weihnachten\LogoPlacity.png"
       style="fill:#69c32d;fill-opacity:1"
       transform="translate(2378.3655,-1344.277)"
       id="g4247">
      <path
         id="path4244"
         d="m -2308.5576,1896.6108 c -2.3163,0.062 -4.6573,0.6932 -6.8126,1.9374 l -29.9062,17.2813 c 39.0782,-6.4101 61.3535,12.7124 62.125,42.9687 0,23.8132 -19.2805,43.125 -43.0938,43.125 -10.7029,0 -20.4915,-3.9171 -28.0312,-10.375 l 0,52.2188 c 3.9819,6.8968 12.7595,9.2319 19.6562,5.25 l 79.5938,-45.9688 c 6.8968,-3.9818 9.2632,-12.728 5.2812,-19.625 l -45.9687,-79.625 c -2.7375,-4.7415 -7.7481,-7.3252 -12.8437,-7.1874 z"
         style="fill:#69c32d;fill-opacity:1;stroke:none"
         inkscape:connector-curvature="0" />
      <path
         id="path4242"
         d="m -2371.4952,1930.9858 -23.4687,13.5312 c -6.8968,3.9819 -9.2631,12.7282 -5.2813,19.625 l 28.75,49.8125 z"
         style="fill:#69c32d;fill-opacity:1;stroke:none"
         inkscape:connector-curvature="0" />
      <path
         id="rect3418"
         transform="translate(1017.2236,-383.85797)"
         d="m -3343.4688,2316.8125 c -14.2844,0 -25.875,11.5595 -25.875,25.8437 0,14.2846 11.5908,25.875 25.875,25.875 14.2845,0 25.8438,-11.5904 25.8438,-25.875 0,-14.2842 -11.5593,-25.8437 -25.8438,-25.8437 z m -7.3124,10.9063 18.5937,14.9374 -18.5937,14.9688 0,-29.9062 z"
         style="fill:#69c32d;fill-opacity:1;stroke:none"
         inkscape:connector-curvature="0" />
    </g>
  </g>
</svg>
