<?xml version="1.0" encoding="UTF-8" standalone="no"?>
<!-- Created with Inkscape (http://www.inkscape.org/) -->

<svg
   xmlns:dc="http://purl.org/dc/elements/1.1/"
   xmlns:cc="http://creativecommons.org/ns#"
   xmlns:rdf="http://www.w3.org/1999/02/22-rdf-syntax-ns#"
   xmlns:svg="http://www.w3.org/2000/svg"
   xmlns="http://www.w3.org/2000/svg"
   xmlns:sodipodi="http://sodipodi.sourceforge.net/DTD/sodipodi-0.dtd"
   xmlns:inkscape="http://www.inkscape.org/namespaces/inkscape"
   width="154.3669"
   height="154.35284"
   id="svg3400"
   version="1.1"
   inkscape:version="0.48.3.1 r9886"
   sodipodi:docname="P+Slogan.svg">
  <defs
     id="defs3402" />
  <sodipodi:namedview
     id="base"
     pagecolor="#ffffff"
     bordercolor="#666666"
     borderopacity="1.0"
     inkscape:pageopacity="0.0"
     inkscape:pageshadow="2"
     inkscape:zoom="1.4"
     inkscape:cx="106.66489"
     inkscape:cy="21.039675"
     inkscape:document-units="px"
     inkscape:current-layer="layer1"
     showgrid="false"
     fit-margin-top="0"
     fit-margin-left="0"
     fit-margin-right="0"
     fit-margin-bottom="0"
     inkscape:window-width="1920"
     inkscape:window-height="1017"
     inkscape:window-x="1912"
     inkscape:window-y="-8"
     inkscape:window-maximized="1" />
  <metadata
     id="metadata3405">
    <rdf:RDF>
      <cc:Work
         rdf:about="">
        <dc:format>image/svg+xml</dc:format>
        <dc:type
           rdf:resource="http://purl.org/dc/dcmitype/StillImage" />
        <dc:title></dc:title>
      </cc:Work>
    </rdf:RDF>
  </metadata>
  <g
     inkscape:label="Ebene 1"
     inkscape:groupmode="layer"
     id="layer1"
     transform="translate(172.42509,-820.93356)">
    <g
       id="g3599"
       transform="translate(2229.7535,-1075.672)"
       style="fill:#69c32d;fill-opacity:1"
       inkscape:export-filename="E:\Dokumente\APP2\Bildmaterial\Weihnachten\LogoPlacity.png"
       inkscape:export-xdpi="11.660527"
       inkscape:export-ydpi="11.660527">
      <path
         inkscape:connector-curvature="0"
         style="fill:#69c32d;fill-opacity:1;stroke:none"
         d="m -2308.5576,1896.6108 c -2.3163,0.062 -4.6573,0.6932 -6.8126,1.9374 l -29.9062,17.2813 c 39.0782,-6.4101 61.3535,12.7124 62.125,42.9687 0,23.8132 -19.2805,43.125 -43.0938,43.125 -10.7029,0 -20.4915,-3.9171 -28.0312,-10.375 l 0,52.2188 c 3.9819,6.8968 12.7595,9.2319 19.6562,5.25 l 79.5938,-45.9688 c 6.8968,-3.9818 9.2632,-12.728 5.2812,-19.625 l -45.9687,-79.625 c -2.7375,-4.7415 -7.7481,-7.3252 -12.8437,-7.1874 z"
         id="path3601" />
      <path
         inkscape:connector-curvature="0"
         style="fill:#69c32d;fill-opacity:1;stroke:none"
         d="m -2371.4952,1930.9858 -23.4687,13.5312 c -6.8968,3.9819 -9.2631,12.7282 -5.2813,19.625 l 28.75,49.8125 z"
         id="path3603" />
      <path
         inkscape:connector-curvature="0"
         style="fill:#69c32d;fill-opacity:1;stroke:none"
         d="m -3343.4688,2316.8125 c -14.2844,0 -25.875,11.5595 -25.875,25.8437 0,14.2846 11.5908,25.875 25.875,25.875 14.2845,0 25.8438,-11.5904 25.8438,-25.875 0,-14.2842 -11.5593,-25.8437 -25.8438,-25.8437 z m -7.3124,10.9063 18.5937,14.9374 -18.5937,14.9688 0,-29.9062 z"
         transform="translate(1017.2236,-383.85797)"
         id="path3605" />
    </g>
  </g>
</svg>
